Tinker Bell and the Great Fairy Rescue (2010) 1080p


PLOT

Tinker Bell must team up with a rival fairy to keep their existence a secret from humans.


MM:    http://www.moviemeter.nl/film/65388

IMDB:    http://www.imdb.com/title/tt1216515/

INFO

Source.......: 1080P BluRay 
FRAME RATE...: 25.000 Fps 
VIDEO CODEC..: X264
AUDIO 1......: AC3 English
AUDIO 2......: AC3 Dutch 
RESOLUTION...: 1920x1080
RUNTIME......: 74 MINS 
GENERE.......: Animation | Adventure | Family | Fantasy
LANGUAGE.....: English & Dutch 
SUBTITLES....: Dutch

Thanks to bradje

Enjoy This Nice Release

PLAYER INFO


      Complete name : Tinker.Bell.and.the.Great.Fairy.Rescue.2010.1080p.Eng.NL.mkv
      Format : Matroska
      File size : 3.96 GiB
      Duration : 1h 13mn
      Overall bit rate : 7 736 Kbps
      Encoded date : UTC 2010-09-15 18:30:58
      Writing application : mkvmerge v3.3.0 ('Language') built on Mar 24 2010 14:59:24
      Writing library : libebml v0.8.0 + libmatroska v0.9.0
   Video #1
      ID : 1
      Format : AVC
      Format/Info : Advanced Video Codec
      Format profile : High@L4.1
      Format settings, CABAC : Yes
      Format settings, ReFrames : 4 frames
      Muxing mode : Container profile=Unknown@4.1
      Codec ID : V_MPEG4/ISO/AVC
      Duration : 1h 13mn
      Bit rate : 6 814 Kbps
      Nominal bit rate : 6 680 Kbps
      Width : 1 920 pixels
      Height : 1 080 pixels
      Display aspect ratio : 16:9
      Frame rate : 25.000 fps
      Original frame rate : 23.976 fps
      Resolution : 24 bits
      Colorimetry : 4:2:0
      Scan type : Progressive
      Bits/(Pixel*Frame) : 0.131
      Stream size : 3.49 GiB (88%)
      Title : x264
      Writing library : x264 core 104 r1703 cd21d05
      Encoding settings : cabac=1 / ref=4 / deblock=1:0:0 / analyse=0x3:0x133 / 
me=umh / subme=8 / psy=1 / psy_rd=1.00:0.00 / mixed_ref=1 / me_range=16 / chroma_me=1 / 
trellis=1 / 8x8dct=1 / cqm=0 / deadzone=21,11 / fast_pskip=0 / chroma_qp_offset=-2 / 
threads=18 / sliced_threads=0 / nr=0 / decimate=1 / interlaced=0 / constrained_intra=0 / 
bframes=3 / b_pyramid=2 / b_adapt=1 / b_bias=0 / direct=1 / weightb=1 / open_gop=0 / 
weightp=2 / keyint=240 / keyint_min=24 / scenecut=40 / intra_refresh=0 / rc_lookahead=40 / 
rc=2pass / mbtree=1 / bitrate=6680 / ratetol=1.0 / qcomp=0.60 / qpmin=10 / qpmax=51 / 
qpstep=4 / cplxblur=20.0 / qblur=0.5 / ip_ratio=1.40 / aq=1:1.00
      Language : English
   Audio #2
      ID : 2
      Format : AC-3
      Format/Info : Audio Coding 3
      Codec ID : A_AC3
      Duration : 1h 13mn
      Bit rate mode : Constant
      Bit rate : 384 Kbps
      Channel(s) : 6 channels
      Channel positions : Front: L C R, Surround: L R, LFE
      Sampling rate : 48.0 KHz
      Stream size : 201 MiB (5%)
      Title : AC3
      Language : Dutch
   Audio #3
      ID : 3
      Format : AC-3
      Format/Info : Audio Coding 3
      Codec ID : A_AC3
      Duration : 1h 13mn
      Bit rate mode : Constant
      Bit rate : 384 Kbps
      Channel(s) : 6 channels
      Channel positions : Front: L C R, Surround: L R, LFE
      Sampling rate : 48.0 KHz
      Stream size : 201 MiB (5%)
      Title : AC3
      Language : English
   Text #4
      ID : 4
      Format : UTF-8
      Codec ID : S_TEXT/UTF8
      Codec ID/Info : UTF-8 Plain Text
      Title : Subtitles
      Language : Dutch